<?xml version="1.0" encoding="UTF-8" standalone="no"?>
<!-- Created with Inkscape (http://www.inkscape.org/) -->

<svg
   version="1.1"
   id="svg9"
   width="322.86603"
   height="46.065029"
   viewBox="0 0 322.86602 46.065029"
   xmlns="http://www.w3.org/2000/svg"
   xmlns:svg="http://www.w3.org/2000/svg">
  <defs
     id="defs13" />
  <g
     id="g15"
     transform="translate(-25.233664,-163.63416)">
    <path
       id="path341"
       style="fill:#000000;stroke-width:1.33333"
       d="m 237.17156,163.77695 c -10.95797,-0.2294 -19.8379,9.11961 -19.8379,21.47852 0,8.93391 3.84009,16.6104 10.66407,21.31445 2.56256,1.76648 5.79528,2.24206 14,2.0586 5.86742,-0.13122 10.96926,-0.68098 11.33593,-1.22266 0.36666,-0.54167 0.36666,-5.6953 0,-11.45117 l -0.66796,-10.46484 -7.76954,-1.08008 c -5.30325,-0.73691 -8.34796,-0.60132 -9.58789,0.42773 -3.09803,2.57114 -0.72157,5.14917 5.14063,5.57617 5.16569,0.37628 5.57979,0.70027 5.96289,4.65625 0.32237,3.32896 -0.31621,4.72853 -2.94531,6.45117 -7.82565,5.12757 -19.4668,-3.92312 -19.4668,-15.13476 0,-13.03634 10.37836,-19.89961 21.43945,-14.17969 4.41561,2.2834 6.56055,1.65504 6.56055,-1.91992 0,-2.82272 -4.88226,-5.27459 -12.61133,-6.33398 -0.74699,-0.10239 -1.48626,-0.16049 -2.21679,-0.17579 z m 95.35546,0.0215 c -2.10951,-0.62438 -4.72262,3.32179 -7.07226,10.8457 -1.40389,4.49546 -4.42853,13.22943 -6.72266,19.40821 -4.423,11.9124 -4.45207,14.76561 -0.14648,14.76561 1.89457,0 2.99601,-1.25961 3.78906,-4.33398 1.09375,-4.23999 1.29525,-4.34206 9.37109,-4.73047 7.24628,-0.34851 8.25391,-0.0995 8.25391,2.03711 0,1.33848 0.91703,3.74267 2.03711,5.34179 2.05725,2.93715 5.96289,2.82315 5.96289,-0.17383 0,-2.6374 -13.22655,-41.23436 -14.60156,-42.60937 -0.27862,-0.27862 -0.56974,-0.46158 -0.8711,-0.55078 z m -55.03906,0.18359 c -1.85479,-0.18428 -3.76878,1.83535 -4.49805,5.21094 -0.35164,1.6276 -3.32032,10.45834 -6.5957,19.625 -3.27537,9.16667 -5.69173,17.45034 -5.37109,18.4082 1.14797,3.42938 6.17064,1.0995 7.47461,-3.46679 l 1.2539,-4.39063 8.11524,0.39063 c 7.85612,0.379 8.13747,0.5186 8.80078,4.375 0.68736,3.99626 4.43778,6.11104 6.74609,3.80273 1.32239,-1.32238 -11.46428,-40.21979 -14.13672,-43.00391 -0.55869,-0.58204 -1.1708,-0.88974 -1.78906,-0.95117 z m -247.996092,0.0312 c -0.628886,-0.0714 -1.324234,0.002 -1.935547,0.23633 -1.950293,0.74839 -2.222657,3.5419 -2.222657,22.76953 v 21.91602 l 9.666016,-0.39258 c 8.647196,-0.35042 9.666016,-0.67316 9.666016,-3.05859 0,-2.23887 -1.023765,-2.73108 -6.388672,-3.07422 l -6.390625,-0.41016 0.193359,-18.05469 c 0.106192,-9.93021 -0.368971,-18.61506 -1.054687,-19.30078 -0.342858,-0.34286 -0.904318,-0.5595 -1.533203,-0.63086 z m 275.048832,0.0742 c -0.40889,0.005 -0.86488,0.1163 -1.3711,0.31055 -2.54808,0.9778 -2.7109,43.89295 -0.16992,44.7793 4.53885,1.58323 5,-0.4059 5,-21.56836 0,-18.39097 -0.59681,-23.55814 -3.45898,-23.52149 z m -236.029301,0.084 c -0.532465,0.0465 -1.044849,0.19447 -1.408203,0.43554 -1.378536,0.91463 -15.134245,39.63282 -15.115235,42.54492 0.006,0.91666 1.425095,1.66602 3.152344,1.66602 2.399256,0 3.433347,-1.02338 4.382813,-4.33398 1.222179,-4.26143 1.373358,-4.33204 9.142578,-4.33204 7.76922,0 7.922351,0.0705 9.144531,4.33204 0.949467,3.3106 1.983555,4.33398 4.382812,4.33398 1.727249,0 3.140625,-0.74987 3.140625,-1.66602 0,-3.64832 -13.782367,-42.22111 -15.292968,-42.80078 -0.444523,-0.17058 -0.996833,-0.22615 -1.529297,-0.17968 z m 62.154301,0.3457 v 21.26172 c 0,11.69386 0.39978,21.66151 0.88867,22.15039 0.48888,0.48889 3.94827,0.88867 7.6875,0.88867 17.47047,0 28.17326,-16.42814 20.57422,-31.58203 -4.51593,-9.00559 -8.68117,-11.56175 -19.85938,-12.19336 z m -35.332036,0.60351 c -2.516767,0.34404 -2.682983,1.48754 -2.960937,20.36329 -0.16198,11 -0.03128,20.75129 0.291015,21.66796 0.322298,0.91666 1.785544,1.66602 3.251954,1.66602 2.488274,0 2.690434,-1.01554 3.041014,-15.21094 l 0.37695,-15.20898 9.34571,14.87695 c 6.84235,10.8915 10.15579,14.99151 12.36719,15.30664 l 3.01953,0.42969 -0.36719,-21.76367 c -0.34978,-20.75263 -0.49043,-21.76367 -3.0332,-21.76367 -2.46574,0 -2.71561,1.11111 -3.33204,14.74609 l -0.66796,14.74609 -9.33204,-15.10937 c -7.36648,-11.92629 -9.89529,-15.03382 -11.999996,-14.7461 z m 85.042966,5.17774 c -6.46485,0.003 -7.04297,0.52598 -7.04297,2.30273 0,2.35674 1.1028,2.5254 15.66602,2.37696 12.96607,-0.13216 15.66602,-0.50492 15.66602,-2.16016 0,-1.64298 -2.79594,-2.0664 -15.66602,-2.375 -3.65974,-0.0877 -6.4681,-0.14547 -8.62305,-0.14453 z m -40.53711,0.17383 c 3.19848,-0.25918 9.69237,2.88553 11.94336,6.10742 4.13808,5.92293 4.57033,10.38963 1.64453,17.0039 -1.95908,4.42882 -3.87161,6.50029 -7.33007,7.94532 -5.21689,2.17976 -6.57712,2.36429 -7.875,1.0664 -1.46316,-1.46315 -1.02781,-30.86685 0.4707,-31.79296 0.30044,-0.18569 0.68956,-0.29306 1.14648,-0.33008 z m -70.83984,5.85156 2.166016,7.45312 c 1.191546,4.09878 2.167968,7.80896 2.167968,8.2461 0,0.43713 -2.101301,0.79492 -4.667968,0.79492 -5.433567,0 -5.613687,-0.83089 -2.164063,-9.91406 z m 262.62891,0.29883 2.18554,6.68164 c 1.20191,3.67464 2.18555,7.31877 2.18555,8.09765 0,0.77887 -2.09935,1.41602 -4.66602,1.41602 -2.56667,0 -4.66796,-0.47262 -4.66796,-1.05078 0,-0.57815 1.11766,-4.2223 2.48242,-8.09766 z m -54.61133,1.25 c 0.58011,-0.26338 1.76921,2.12499 3.08203,6.27929 1.39047,4.4 2.53617,8.14871 2.54687,8.33204 0.0108,0.18333 -2.37917,0.33398 -5.3125,0.33398 -2.93334,0 -5.33398,-0.22359 -5.33398,-0.49805 0,-0.49002 3.30896,-10.23889 4.80859,-14.16797 0.0566,-0.14836 0.12611,-0.24167 0.20899,-0.27929 z m -91.95899,0.27929 c -2.48865,0 -5.245,0.71961 -6.125,1.59961 -2.32895,2.32894 -1.95905,10.46117 0.60547,13.29493 2.90508,3.21008 7.84421,3.10251 10.17188,-0.22071 1.99777,-2.85221 3.90558,-2.29868 2.7207,0.78907 -0.4194,1.09291 0.11562,1.86914 1.28711,1.86914 1.41207,0 1.94582,-1.27879 1.80859,-4.33204 -0.15957,-3.55062 0.34852,-4.41066 2.80664,-4.75976 3.66929,-0.52112 4.00755,-2.9082 0.41211,-2.9082 -1.42338,0 -2.95889,-0.59871 -3.41211,-1.33204 -0.46736,-0.75622 0.65275,-1.33398 2.5879,-1.33398 1.87661,0 3.4121,-0.60065 3.4121,-1.33398 0,-0.73333 -2.17006,-1.33204 -4.82226,-1.33204 -4.16572,0 -4.72743,0.36237 -4.125,2.66602 0.38354,1.46667 0.22368,2.66602 -0.35547,2.66602 -0.57914,0 -1.36646,-1.19935 -1.75,-2.66602 -0.52454,-2.00581 -1.81916,-2.66602 -5.22266,-2.66602 z m -1.05664,2.02344 c 1.01696,-0.10887 2.13518,0.30315 3.23828,1.40625 2.48444,2.48443 2.73495,7.39396 0.49219,9.63672 -2.25882,2.25882 -5.96631,1.98552 -6.92383,-0.50977 -1.98889,-5.18298 0.1425,-10.20658 3.19336,-10.5332 z m 13.45313,17.48438 c -2.08376,-0.0328 -4.74213,-0.0179 -8.13867,0.0215 -12.91989,0.14975 -15.38442,0.51402 -15.74805,2.32422 -0.37733,1.87839 1.59006,2.14648 15.76562,2.14648 14.68072,0 16.15368,-0.21796 15.74805,-2.32421 -0.29769,-1.54571 -1.37567,-2.06958 -7.62695,-2.16797 z" />
  </g>
</svg>
